<svg xmlns="http://www.w3.org/2000/svg" viewBox="0 0 460 460"><defs><style>.cls-1{fill:#01d277;}</style></defs><title>Fichier 1</title><g id="Calque_2" data-name="Calque 2"><g id="Capa_1" data-name="Capa 1"><g id="_Groupe_" data-name="&lt;Groupe&gt;"><path id="_Tracé_" data-name="&lt;Tracé&gt;" class="cls-1" d="M430,460h30V351.33a258.44,258.44,0,0,1-30,44.81Z"/><path id="_Tracé_transparent_" data-name="&lt;Tracé transparent&gt;" class="cls-1" d="M230,0C103,0,0,103,0,230S103,460,230,460,460,357,460,230,357,0,230,0Zm0,40a55,55,0,1,1-55,55A55,55,0,0,1,230,40ZM46.61,188.28a55,55,0,1,1,55,55A55,55,0,0,1,46.61,188.28Zm104,205.94a55,55,0,1,1,55-55A55,55,0,0,1,150.65,394.22ZM230,250a20,20,0,1,1,20-20A20,20,0,0,1,230,250Zm79.35,144.22a55,55,0,1,1,55-55A55,55,0,0,1,309.35,394.22Zm49-150.94a55,55,0,1,1,55-55A55,55,0,0,1,358.39,243.28Z"/></g></g></g></svg>